<svg id="visual" viewBox="0 0 960 540" width="960" height="540" xmlns="http://www.w3.org/2000/svg" xmlns:xlink="http://www.w3.org/1999/xlink" version="1.1"><rect x="0" y="0" width="960" height="540" fill="#9388A2"></rect><defs><linearGradient id="grad1_0" x1="43.8%" y1="0%" x2="100%" y2="100%"><stop offset="14.444444444444446%" stop-color="#9388a2" stop-opacity="1"></stop><stop offset="85.55555555555554%" stop-color="#9388a2" stop-opacity="1"></stop></linearGradient></defs><defs><linearGradient id="grad2_0" x1="0%" y1="0%" x2="56.3%" y2="100%"><stop offset="14.444444444444446%" stop-color="#9388a2" stop-opacity="1"></stop><stop offset="85.55555555555554%" stop-color="#9388a2" stop-opacity="1"></stop></linearGradient></defs><g transform="translate(960, 0)"><path d="M0 486C-66.5 482.9 -133.1 479.9 -186 449C-238.9 418.1 -278.2 359.4 -306.9 306.9C-335.5 254.4 -353.5 208.2 -381.6 158C-409.6 107.9 -447.8 54 -486 0L0 0Z" fill="#170B3B"></path></g><g transform="translate(0, 540)"><path d="M0 -486C58.8 -462.5 117.6 -439 171.1 -413C224.5 -386.9 272.5 -358.2 321.7 -321.7C371 -285.2 421.4 -240.9 449 -186C476.6 -131.1 481.3 -65.5 486 0L0 0Z" fill="#170B3B"></path></g></svg>