<svg id="visual" viewBox="0 0 960 540" width="960" height="540" xmlns="http://www.w3.org/2000/svg" xmlns:xlink="http://www.w3.org/1999/xlink" version="1.1"><rect x="0" y="0" width="960" height="540" fill="#170B3B"></rect><g transform="translate(464.10384288492537 264.2544708747404)"><path d="M94.6 -157.2C120.9 -148.7 139.2 -119.8 165.2 -90.3C191.1 -60.7 224.5 -30.3 236.5 6.9C248.5 44.2 239 88.3 204.4 102.9C169.9 117.6 110.3 102.6 72 116.2C33.8 129.8 16.9 171.9 -11.5 191.8C-39.8 211.7 -79.7 209.3 -118.6 196.2C-157.6 183 -195.7 159 -206.3 124.5C-216.9 90 -199.9 45 -189.7 5.9C-179.4 -33.2 -175.9 -66.3 -167.6 -104.7C-159.2 -143.1 -146.1 -186.7 -117.4 -193.8C-88.7 -200.9 -44.3 -171.5 -5.1 -162.6C34.2 -153.8 68.3 -165.7 94.6 -157.2" fill="#9388A2"></path></g></svg>