<svg id="visual" viewBox="0 0 960 540" width="960" height="540" xmlns="http://www.w3.org/2000/svg" xmlns:xlink="http://www.w3.org/1999/xlink" version="1.1"><rect x="0" y="0" width="960" height="540" fill="#170B3B"></rect><path d="M0 391L16 384.3C32 377.7 64 364.3 96 365C128 365.7 160 380.3 192 383.7C224 387 256 379 288 374.8C320 370.7 352 370.3 384 368C416 365.7 448 361.3 480 362.8C512 364.3 544 371.7 576 376.3C608 381 640 383 672 387.7C704 392.3 736 399.7 768 393.3C800 387 832 367 864 357.3C896 347.7 928 348.3 944 348.7L960 349L960 541L944 541C928 541 896 541 864 541C832 541 800 541 768 541C736 541 704 541 672 541C640 541 608 541 576 541C544 541 512 541 480 541C448 541 416 541 384 541C352 541 320 541 288 541C256 541 224 541 192 541C160 541 128 541 96 541C64 541 32 541 16 541L0 541Z" fill="#341948"></path><path d="M0 426L16 423.7C32 421.3 64 416.7 96 409.3C128 402 160 392 192 386.7C224 381.3 256 380.7 288 379.5C320 378.3 352 376.7 384 381.3C416 386 448 397 480 403.3C512 409.7 544 411.3 576 411.8C608 412.3 640 411.7 672 407.7C704 403.7 736 396.3 768 390C800 383.7 832 378.3 864 379.3C896 380.3 928 387.7 944 391.3L960 395L960 541L944 541C928 541 896 541 864 541C832 541 800 541 768 541C736 541 704 541 672 541C640 541 608 541 576 541C544 541 512 541 480 541C448 541 416 541 384 541C352 541 320 541 288 541C256 541 224 541 192 541C160 541 128 541 96 541C64 541 32 541 16 541L0 541Z" fill="#4b345e"></path><path d="M0 419L16 420.5C32 422 64 425 96 423C128 421 160 414 192 410.8C224 407.7 256 408.3 288 414.5C320 420.7 352 432.3 384 440.2C416 448 448 452 480 451.5C512 451 544 446 576 445.7C608 445.3 640 449.7 672 449.3C704 449 736 444 768 439.3C800 434.7 832 430.3 864 428C896 425.7 928 425.3 944 425.2L960 425L960 541L944 541C928 541 896 541 864 541C832 541 800 541 768 541C736 541 704 541 672 541C640 541 608 541 576 541C544 541 512 541 480 541C448 541 416 541 384 541C352 541 320 541 288 541C256 541 224 541 192 541C160 541 128 541 96 541C64 541 32 541 16 541L0 541Z" fill="#624f74"></path><path d="M0 442L16 448.2C32 454.3 64 466.7 96 467.3C128 468 160 457 192 453.5C224 450 256 454 288 460C320 466 352 474 384 472.3C416 470.7 448 459.3 480 455.5C512 451.7 544 455.3 576 454.8C608 454.3 640 449.7 672 450.8C704 452 736 459 768 459.5C800 460 832 454 864 452.5C896 451 928 454 944 455.5L960 457L960 541L944 541C928 541 896 541 864 541C832 541 800 541 768 541C736 541 704 541 672 541C640 541 608 541 576 541C544 541 512 541 480 541C448 541 416 541 384 541C352 541 320 541 288 541C256 541 224 541 192 541C160 541 128 541 96 541C64 541 32 541 16 541L0 541Z" fill="#7a6b8b"></path><path d="M0 502L16 498.8C32 495.7 64 489.3 96 487C128 484.7 160 486.3 192 489C224 491.7 256 495.3 288 497.3C320 499.3 352 499.7 384 499.2C416 498.7 448 497.3 480 494.3C512 491.3 544 486.7 576 488.7C608 490.7 640 499.3 672 501.2C704 503 736 498 768 496.7C800 495.3 832 497.7 864 498.5C896 499.3 928 498.7 944 498.3L960 498L960 541L944 541C928 541 896 541 864 541C832 541 800 541 768 541C736 541 704 541 672 541C640 541 608 541 576 541C544 541 512 541 480 541C448 541 416 541 384 541C352 541 320 541 288 541C256 541 224 541 192 541C160 541 128 541 96 541C64 541 32 541 16 541L0 541Z" fill="#9388a2"></path></svg>