<?xml version="1.0" encoding="UTF-8"?>
<svg version="1.1" xmlns="http://www.w3.org/2000/svg" width="500" height="500">
<path d="M0 0 C1.05565155 0.00273422 1.05565155 0.00273422 2.13262939 0.00552368 C12.8053974 0.05200865 22.86756454 0.65528226 33.25 3.3125 C33.95656738 3.47878906 34.66313477 3.64507812 35.39111328 3.81640625 C63.12154783 10.35118027 86.83971508 24.60960177 107.25 44.3125 C108.09401367 45.12037964 108.09401367 45.12037964 108.95507812 45.94458008 C113.06671457 49.9543263 116.69573527 54.14587853 120.125 58.75 C120.63748291 59.43666748 121.14996582 60.12333496 121.67797852 60.83081055 C138.60621859 83.99479966 150.25 113.40219051 150.25 142.3125 C170.05 142.3125 189.85 142.3125 210.25 142.3125 C210.25 147.5925 210.25 152.8725 210.25 158.3125 C190.45 158.3125 170.65 158.3125 150.25 158.3125 C150.25 160.9525 150.25 163.5925 150.25 166.3125 C149.91937093 168.97366082 149.54668928 171.55684306 149.0625 174.1875 C148.9294043 174.91509521 148.79630859 175.64269043 148.65917969 176.39233398 C141.14652087 215.69093462 119.67622592 250.81554007 86.625 273.875 C60.84818654 291.32961132 31.73345593 300.76269044 0.5 300.625 C-0.8104126 300.62081055 -2.1208252 300.61662109 -3.47094727 300.61230469 C-13.52969423 300.49556634 -22.96677084 299.60114698 -32.75 297.3125 C-34.03390625 297.02246094 -35.3178125 296.73242188 -36.640625 296.43359375 C-63.14751298 289.9159536 -86.19679608 276.20400497 -105.75 257.3125 C-106.28044922 256.80468994 -106.81089844 256.29687988 -107.35742188 255.77368164 C-127.02657522 236.60059432 -140.39431392 210.90679935 -146.75 184.3125 C-146.75 182.9925 -146.75 181.6725 -146.75 180.3125 C-141.47 180.3125 -136.19 180.3125 -130.75 180.3125 C-130.3375 181.6428125 -129.925 182.973125 -129.5 184.34375 C-123.09487174 204.54020197 -114.47994829 222.01149961 -100.75 238.3125 C-99.81027344 239.45525391 -99.81027344 239.45525391 -98.8515625 240.62109375 C-91.14993492 249.69015317 -81.66735022 256.81701413 -71.75 263.3125 C-70.89535156 263.87582031 -70.04070312 264.43914062 -69.16015625 265.01953125 C-48.20788252 278.03756388 -23.32394493 284.40602596 1.25 284.3125 C2.52359375 284.3125 3.7971875 284.3125 5.109375 284.3125 C22.35628442 283.74933561 39.62934257 279.5949829 55.25 272.3125 C57.01537109 271.51005859 57.01537109 271.51005859 58.81640625 270.69140625 C90.27776558 255.73776345 112.81085356 229.69740328 125.71875 197.66796875 C130.23763805 184.95170756 132.58031713 171.66996293 134.25 158.3125 C106.53 158.3125 78.81 158.3125 50.25 158.3125 C50.25 153.0325 50.25 147.7525 50.25 142.3125 C77.97 142.3125 105.69 142.3125 134.25 142.3125 C129.59524625 111.28080833 121.68284331 86.34152373 101.25 62.3125 C100.31414062 61.17554688 100.31414062 61.17554688 99.359375 60.015625 C91.65989559 50.93900294 82.17066562 43.81015733 72.25 37.3125 C71.39535156 36.74917969 70.54070312 36.18585938 69.66015625 35.60546875 C39.60089351 16.92909653 2.55218368 12.3290542 -31.6875 20.0625 C-65.46895944 28.4046305 -95.53004401 49.95396566 -113.62109375 79.6484375 C-120.17308936 90.75951755 -124.99056792 101.98505993 -128.75 114.3125 C-129.41 116.2925 -130.07 118.2725 -130.75 120.3125 C-136.03 120.3125 -141.31 120.3125 -146.75 120.3125 C-142.55638178 90.95717246 -126.98542201 65.46771391 -106.75 44.3125 C-106.13125 43.6421875 -105.5125 42.971875 -104.875 42.28125 C-78.28424838 14.3609608 -37.93917921 -0.20467351 0 0 Z " fill="#F1F1F1" transform="translate(249.75,99.6875)"/>
<path d="M0 0 C64.35 0 128.7 0 195 0 C195 5.28 195 10.56 195 16 C130.65 16 66.3 16 0 16 C0 10.72 0 5.44 0 0 Z " fill="#EFEFEF" transform="translate(25,242)"/>
<path d="M0 0 C0.33 0 0.66 0 1 0 C1 2.31 1 4.62 1 7 C-17.15 7 -35.3 7 -54 7 C-54 11.62 -54 16.24 -54 21 C-35.85 21 -17.7 21 1 21 C1 22.98 1 24.96 1 27 C0.67 27 0.34 27 0 27 C0 25.35 0 23.7 0 22 C-27.72 22 -55.44 22 -84 22 C-84 16.72 -84 11.44 -84 6 C-56.28 6 -28.56 6 0 6 C0 4.02 0 2.04 0 0 Z " fill="#2093B4" transform="translate(384,236)"/>
<path d="M0 0 C19.8 0 39.6 0 60 0 C60 5.28 60 10.56 60 16 C40.2 16 20.4 16 0 16 C0 15.67 0 15.34 0 15 C9.9 15 19.8 15 30 15 C30 10.38 30 5.76 30 1 C20.1 1 10.2 1 0 1 C0 0.67 0 0.34 0 0 Z " fill="#8C5A9C" transform="translate(400,242)"/>
</svg>
